<svg id="svg" fill="#c4d7f3" stroke="#c4d7f3" width="200" height="200" version="1.1" viewBox="144 144 512 512" xmlns="http://www.w3.org/2000/svg">
    <g id="IconSvg_bgCarrier" stroke-width="0"></g>
    <g id="IconSvg_tracerCarrier" stroke-linecap="round" stroke-linejoin="round" stroke="#ffffff" stroke-width="0">
      <path xmlns="http://www.w3.org/2000/svg" d="m400 160.69-215.63 70.535 36.273 194.47c17.129 90.688 73.555 168.78 153.66 213.62l12.594-206.06c1.0078-15.617-1.5117-30.23-7.0547-43.328-1.5117-3.0234-2.5195-6.5508-3.0234-10.578 0-0.50391 29.727-1.0078 29.727-1.5117h-30.73c-7.0547-1.0078-13.098-6.5508-14.105-14.105h1.0078c10.578 1.0078 20.152 1.0078 32.242 0-24.184-0.50391-47.863-5.543-54.914-7.0547l-1.0078-0.50391v4.5352c0 8.5664-31.738 8.5664-31.738 0v-107.82c0-8.5664 31.738-8.5664 31.738 0v75.066l5.543-71.539c12.09-2.5195 25.191-4.0312 38.289-4.5352h22.168l-21.664-3.5273v-2.0156c0-1.5117 2.5195-2.5195 5.543-3.5273 7.5586-2.5195 16.121-2.5195 23.68 0 3.0234 1.0078 5.543 2.0156 5.543 3.5273v5.543c15.113 1.0078 29.727 2.5195 43.328 5.0391l1.0078 0.50391v-4.0312c0-8.5664 31.738-8.5664 31.738 0v107.82c0 8.5664-31.738 8.5664-31.738 0v-76.074l-4.5352 73.051c-6.0469 1.0078-12.09 2.0156-18.137 3.0234v1.0078c0 8.5664-6.5508 15.617-15.113 16.121-1.0078 4.5352-2.0156 8.5664-3.5273 12.09-5.543 12.594-8.0625 27.711-7.0547 43.328l12.594 206.06c80.105-44.84 136.53-122.43 153.66-213.62l36.273-194.47z"></path>

      </g>
     <g id="IconSvg_iconCarrier">
      <path xmlns="http://www.w3.org/2000/svg" d="m400 160.69-215.63 70.535 36.273 194.47c17.129 90.688 73.555 168.78 153.66 213.62l12.594-206.06c1.0078-15.617-1.5117-30.23-7.0547-43.328-1.5117-3.0234-2.5195-6.5508-3.0234-10.578 0-0.50391 29.727-1.0078 29.727-1.5117h-30.73c-7.0547-1.0078-13.098-6.5508-14.105-14.105h1.0078c10.578 1.0078 20.152 1.0078 32.242 0-24.184-0.50391-47.863-5.543-54.914-7.0547l-1.0078-0.50391v4.5352c0 8.5664-31.738 8.5664-31.738 0v-107.82c0-8.5664 31.738-8.5664 31.738 0v75.066l5.543-71.539c12.09-2.5195 25.191-4.0312 38.289-4.5352h22.168l-21.664-3.5273v-2.0156c0-1.5117 2.5195-2.5195 5.543-3.5273 7.5586-2.5195 16.121-2.5195 23.68 0 3.0234 1.0078 5.543 2.0156 5.543 3.5273v5.543c15.113 1.0078 29.727 2.5195 43.328 5.0391l1.0078 0.50391v-4.0312c0-8.5664 31.738-8.5664 31.738 0v107.82c0 8.5664-31.738 8.5664-31.738 0v-76.074l-4.5352 73.051c-6.0469 1.0078-12.09 2.0156-18.137 3.0234v1.0078c0 8.5664-6.5508 15.617-15.113 16.121-1.0078 4.5352-2.0156 8.5664-3.5273 12.09-5.543 12.594-8.0625 27.711-7.0547 43.328l12.594 206.06c80.105-44.84 136.53-122.43 153.66-213.62l36.273-194.47z"></path>

      </g>
      </svg>